:version 1.10
:name ASF
:units
  mass 1
  length 1
  angle deg
:documentation
  ASF file generated by Kaydara
:root
  axis xyz
  order  tx ty tz rx ry rz
  position 0 0 0
  orientation 0 0 0
:bonedata
  begin
    id 1
    name LeftUpLegDummy
    direction 1 -2.30186e-007 -8.31532e-007
    length 2.93387
    axis 0 0 0 xyz
  end
  begin
    id 2
    name LeftUpLeg
    direction -1.82929e-007 -1 -1.48925e-009
    length 17.3336
    axis -3.48766 0.00143442 -0.000521554 xyz
    dof rx ry rz
  end
  begin
    id 3
    name LeftLeg
    direction -1.82929e-007 -1 -5.23717e-011
    length 14.9995
    axis 3.68178 -0.00654042 -0.000282425 xyz
    dof rx ry rz
  end
  begin
    id 4
    name LeftFoot
    direction 8.31532e-007 -4.54534e-011 1
    length 6.74421
    axis 1.87234e-006 4.66016e-005 -5.96866e-006 xyz
    dof rx ry rz
  end
  begin
    id 5
    name LeftToes
    direction 0.00818058 -0.00485161 0.999955
    length 3.85048
    axis 1.06247e-005 4.65869e-005 -5.96999e-006 xyz
    dof rx ry rz
  end
  begin
    id 6
    name SpineDummy
    direction -5.8607e-008 0.943407 -0.331637
    length 5.93572
    axis 0 0 0 xyz
  end
  begin
    id 7
    name Spine
    direction -1.04988e-007 0.999988 0.00495137
    length 10.1015
    axis -0.001389 0.000121417 6.61666e-006 xyz
    dof rx ry rz
  end
  begin
    id 8
    name Spine1
    direction 0 0 0
    length 0
    axis -0.001389 0.00012144 6.56766e-006 xyz
    dof rx ry rz
  end
  begin
    id 9
    name RightShoulderDummy
    direction -0.98348 0.17941 -0.0240696
    length 3.59882
    axis -0.001389 0.00012144 6.56766e-006 xyz
  end
  begin
    id 10
    name RightShoulder
    direction -0.978693 0.204882 0.0135597
    length 2.70001
    axis 0.215806 0.000203631 -0.00679732 xyz
    dof rx ry rz
  end
  begin
    id 11
    name RightArm
    direction -1 3.85509e-006 8.31394e-007
    length 10.2459
    axis -23.2009 -0.134239 -0.964098 xyz
    dof rx ry rz
  end
  begin
    id 12
    name RightForeArm
    direction -1 3.85569e-006 8.3129e-007
    length 8.16799
    axis -9.92322 0.0658061 0.17887 xyz
    dof rx ry rz
  end
  begin
    id 13
    name RightHand
    direction -0.992843 -0.0414604 0.112003
    length 5.28593
    axis -0.00960638 0.00330669 -0.185225 xyz
    dof rx ry rz
  end
  begin
    id 14
    name LeftShoulder1Dummy
    direction 0.983523 0.179172 -0.0240748
    length 3.59866
    axis -0.001389 0.00012144 6.56766e-006 xyz
  end
  begin
    id 15
    name LeftShoulder1
    direction 0.978627 0.205195 0.0135605
    length 2.70019
    axis -0.001389 0.00012144 6.57583e-006 xyz
    dof rx ry rz
  end
  begin
    id 16
    name LeftArm
    direction 1 3.51895e-006 -8.60188e-007
    length 10.2459
    axis -23.1894 0.134785 0.967513 xyz
    dof rx ry rz
  end
  begin
    id 17
    name LeftForeArm
    direction 1 3.51921e-006 -7.32029e-007
    length 8.16799
    axis -9.91835 -0.0656957 -0.177789 xyz
    dof rx ry rz
  end
  begin
    id 18
    name LeftHand
    direction 0.992938 -0.0411636 0.11126
    length 5.32135
    axis -0.00960237 -0.00340661 0.185177 xyz
    dof rx ry rz
  end
  begin
    id 19
    name HEadDummy
    direction 1.01974e-006 0.999861 -0.016675
    length 2.99946
    axis -0.001389 0.00012144 6.56766e-006 xyz
  end
  begin
    id 20
    name HEad
    direction -0.0222689 0.980941 0.193023
    length 5.12695
    axis -0.001389 0.00012144 6.56766e-006 xyz
    dof rx ry rz
  end
  begin
    id 21
    name RightUpLegDummy
    direction -1 2.30186e-007 8.31532e-007
    length 2.93387
    axis 0 0 0 xyz
  end
  begin
    id 22
    name RightUpLeg
    direction -1.82966e-007 -1 1.56832e-007
    length 17.3336
    axis -3.4909 -0.000906625 0.00028951 xyz
    dof rx ry rz
  end
  begin
    id 23
    name RightLeg
    direction -1.82786e-007 -1 -1.80317e-007
    length 14.9995
    axis 3.68513 0.0193739 -0.131021 xyz
    dof rx ry rz
  end
  begin
    id 24
    name RightFoot
    direction 8.31721e-007 -4.63324e-011 1
    length 6.74421
    axis 4.81691e-005 -0.120479 -0.188785 xyz
    dof rx ry rz
  end
  begin
    id 25
    name RightToes
    direction 0.00124746 -0.014064 0.9999
    length 3.85082
    axis 0.000481921 0.542163 -0.142575 xyz
    dof rx ry rz
  end
:hierarchy
  begin
    root LeftUpLegDummy SpineDummy RightUpLegDummy
    LeftUpLegDummy LeftUpLeg
    LeftUpLeg LeftLeg
    LeftLeg LeftFoot
    LeftFoot LeftToes
    SpineDummy Spine
    Spine Spine1
    Spine1 RightShoulderDummy LeftShoulder1Dummy HEadDummy
    RightShoulderDummy RightShoulder
    RightShoulder RightArm
    RightArm RightForeArm
    RightForeArm RightHand
    LeftShoulder1Dummy LeftShoulder1
    LeftShoulder1 LeftArm
    LeftArm LeftForeArm
    LeftForeArm LeftHand
    HEadDummy HEad
    RightUpLegDummy RightUpLeg
    RightUpLeg RightLeg
    RightLeg RightFoot
    RightFoot RightToes
  end

:SAMPLES-PER-SECOND 30
:FULLY-SPECIFIED
:DEGREES
148
root  4.30207 33.8692 -15.482 1.32088 0.322719 4.5387
LeftUpLeg  -2.15562 12.864 -6.61329
LeftLeg  12.377 8.62718 1.31277
LeftFoot  -5.9094 -0.0464237 -0.901227
LeftToes  -6.60712 8.556e-007 1.17171e-007
Spine  1.23093 -0.838435 -2.48916
Spine1  2.52253 -1.558 -4.98629
RightShoulder  -0.0156663 6.53947 2.37669
RightArm  -34.3411 -22.6471 79.5724
RightForeArm  29.3158 25.8393 4.89212
RightHand  1.05713 -13.0257 -8.86567
LeftShoulder1  -0.00591789 0.272469 -2.94394
LeftArm  -8.44466 -35.8575 -74.8498
LeftForeArm  139.662 -41.9821 -170.557
LeftHand  0.658415 4.43317 16.4921
HEad  -14.0267 15.9248 -3.72494
RightUpLeg  -14.0277 -12.6844 -8.22213
RightLeg  1.71325 -2.98723 0.103501
RightFoot  21.3607 0.280682 -1.1106
RightToes  -35.9468 -0.187234 -0.292509
149
root  4.37443 33.856 -15.5676 1.35992 0.436186 4.74339
LeftUpLeg  -2.31317 12.9319 -6.95428
LeftLeg  12.3204 8.40623 1.27092
LeftFoot  -5.8826 -0.0449629 -0.875087
LeftToes  -6.5244 8.556e-007 1.17171e-007
Spine  1.2623 -0.822945 -2.52111
Spine1  2.57939 -1.54858 -5.01856
RightShoulder  -0.0163994 6.61843 2.4583
RightArm  -34.4165 -22.8243 79.5899
RightForeArm  29.4254 25.7469 4.87188
RightHand  1.06791 -13.0928 -8.9114
LeftShoulder1  -0.0031126 0.0888405 -3.15132
LeftArm  -11.1221 -35.4629 -73.9787
LeftForeArm  141.19 -40.5466 -171.008
LeftHand  0.566374 3.94733 15.9266
HEad  -16.2267 20.2004 -4.15776
RightUpLeg  -14.1779 -12.8398 -8.50405
RightLeg  1.65363 -2.97912 0.106307
RightFoot  21.5812 0.285998 -1.12292
RightToes  -36.1251 -0.188292 -0.293927
150
root  4.43894 33.8455 -15.6426 1.37435 0.688164 4.89326
LeftUpLeg  -2.43386 12.9484 -7.22711
LeftLeg  12.2833 8.1498 1.22701
LeftFoot  -5.86114 -0.0433059 -0.845932
LeftToes  -6.31648 8.556e-007 1.17171e-007
Spine  1.27883 -0.829218 -2.53938
Spine1  2.60775 -1.58105 -5.02464
RightShoulder  -0.0171408 6.68075 2.54829
RightArm  -34.5055 -22.8943 79.5694
RightForeArm  29.6643 25.2611 4.76613
RightHand  1.07384 -12.953 -9.06378
LeftShoulder1  -0.00016234 -0.14421 -3.37957
LeftArm  -13.2736 -34.5714 -72.7357
LeftForeArm  142.665 -38.8612 -171.514
LeftHand  0.485087 3.45991 15.5565
HEad  -18.2085 24.08 -4.76877
RightUpLeg  -14.2199 -12.8484 -8.80148
RightLeg  1.57074 -3.20846 0.119081
RightFoot  21.7971 0.308167 -1.22281
RightToes  -36.3411 -0.189934 -0.295368
151
root  4.49619 33.8375 -15.7069 1.37125 1.08858 5.0268
LeftUpLeg  -2.55479 12.8407 -7.46167
LeftLeg  12.3398 7.86501 1.19228
LeftFoot  -5.84282 -0.0421934 -0.814791
LeftToes  -6.21957 8.556e-007 1.17171e-007
Spine  1.29674 -0.846938 -2.55949
Spine1  2.63901 -1.64444 -5.024
RightShoulder  -0.0178769 6.67675 2.57224
RightArm  -34.8982 -23.0134 79.6723
RightForeArm  29.9554 24.8737 4.68237
RightHand  1.0643 -12.986 -8.95659
LeftShoulder1  0.00329813 -0.296341 -3.40949
LeftArm  -14.7848 -33.4849 -71.7426
LeftForeArm  143.936 -37.2776 -171.968
LeftHand  0.470184 3.41136 15.2899
HEad  -19.9687 27.2231 -5.31142
RightUpLeg  -14.1932 -13.0203 -9.09273
RightLeg  1.49948 -3.41494 0.13095
RightFoot  22.0122 0.329586 -1.3169
RightToes  -36.875 -0.192687 -0.296797
152
root  4.54534 33.8309 -15.7643 1.34882 1.6076 5.11555
LeftUpLeg  -2.70018 12.5928 -7.64189
LeftLeg  12.533 7.63325 1.18356
LeftFoot  -5.89749 -0.0402288 -0.798867
LeftToes  -5.91609 8.556e-007 1.17171e-007
Spine  1.32478 -0.822525 -2.56994
Spine1  2.69008 -1.61391 -5.01492
RightShoulder  -0.0186243 6.67492 2.5905
RightArm  -35.3172 -23.2455 79.7789
RightForeArm  30.0029 24.697 4.6444
RightHand  1.09536 -13.1143 -9.13327
LeftShoulder1  0.00585673 -0.298182 -3.53662
LeftArm  -15.8014 -32.639 -71.1627
LeftForeArm  144.606 -36.3828 -172.215
LeftHand  0.457735 3.48061 14.5807
HEad  -21.1511 29.6928 -5.76334
RightUpLeg  -14.1115 -13.1375 -9.36087
RightLeg  1.46274 -3.82583 0.149106
RightFoot  22.1814 0.365262 -1.4856
RightToes  -37.1387 -0.195923 -0.298395
153
root  4.58451 33.8235 -15.8263 1.29752 2.21953 5.24079
LeftUpLeg  -2.84005 12.3927 -7.82835
LeftLeg  12.7675 7.27098 1.15802
LeftFoot  -5.8982 -0.0392535 -0.761949
LeftToes  -5.83567 8.556e-007 1.17171e-007
Spine  1.34058 -0.775414 -2.60844
Spine1  2.71565 -1.54152 -5.05433
RightShoulder  -0.0194069 6.72842 2.57844
RightArm  -35.7257 -23.5374 79.9094
RightForeArm  30.2251 24.5498 4.61274
RightHand  1.08716 -13.0781 -9.08864
LeftShoulder1  0.00805397 -0.399455 -3.63367
LeftArm  -16.7135 -31.9116 -70.6003
LeftForeArm  144.62 -35.947 -172.334
LeftHand  0.463775 3.65703 14.0539
HEad  -21.9558 31.7039 -6.27389
RightUpLeg  -13.9682 -13.1323 -9.70438
RightLeg  1.40676 -4.41563 0.176333
RightFoot  22.374 0.416378 -1.72754
RightToes  -37.55 -0.199214 -0.300224
154
root  4.62237 33.8173 -15.8848 1.2603 2.85447 5.31539
LeftUpLeg  -2.95327 12.2082 -7.95828
LeftLeg  12.9381 6.88054 1.11701
LeftFoot  -5.92038 -0.0374477 -0.724169
LeftToes  -5.64055 8.556e-007 1.17171e-007
Spine  1.35053 -0.698521 -2.63988
Spine1  2.7293 -1.40275 -5.09105
RightShoulder  -0.0201795 6.75231 2.55659
RightArm  -35.8518 -23.7781 79.9807
RightForeArm  30.4763 24.3814 4.57661
RightHand  1.09623 -13.076 -9.16868
LeftShoulder1  0.0104273 -0.424735 -3.7087
LeftArm  -17.1493 -31.3066 -70.1593
LeftForeArm  144.897 -35.5673 -172.436
LeftHand  0.472027 3.68938 14.1806
HEad  -22.7397 33.0873 -6.78501
RightUpLeg  -13.8307 -13.2865 -9.98285
RightLeg  1.37965 -4.85462 0.196113
RightFoot  22.5575 0.456923 -1.9132
RightToes  -37.9694 -0.202468 -0.302155
